{"title":"Rychly Prachy (PRHA - 02.12.212) - Andrea","uid":7886650,"size":546409644,"categoryP":"porn","categoryS":"movies","magnet":"?xt=urn:btih:2eae8bae11dafc8a2a838d3562f188ae1423cacb&amp;dn=Rychly+Prachy+%28PRHA+-+02.12.212%29+-+Andrea&amp;tr=udp%3A%2F%2Ftracker.openbittorrent.com%3A80&amp;tr=udp%3A%2F%2Fopen.demonii.com%3A1337&amp;tr=udp%3A%2F%2Ftracker.coppersurfer.tk%3A6969&amp;tr=udp%3A%2F%2Fexodus.desync.com%3A6969","seeders":1,"leechers":0,"uploader":"ziki","files":4,"time":1354629848,"description":"\n\n                Rychly Prachy (PRAHA - 05.11.2012) - Eva\n\n  Without advertising!\n\nScreen:\n &lt;a href=&quot;\nhttp://image.bayimg.com/431d5db065cbc7771a50cfaa3649e8e19a01c80d.jpg&quot; rel=&quot;nofollow&quot; target=&quot;_NEW&quot;&gt;\nhttp://image.bayimg.com/431d5db065cbc7771a50cfaa3649e8e19a01c80d.jpg&lt;/a&gt;\n\n\nOficial website:\n &lt;a href=&quot;\nhttp://rychlyprachy.cz&quot; rel=&quot;nofollow&quot; target=&quot;_NEW&quot;&gt;\nhttp://rychlyprachy.cz&lt;/a&gt;\n\n\nDirect Link:\n &lt;a href=&quot;\nhttp://rychlyprachy.cz/video62.cz.html&quot; rel=&quot;nofollow&quot; target=&quot;_NEW&quot;&gt;\nhttp://rychlyprachy.cz/video62.cz.html&lt;/a&gt;\n\n\n\nGeneral\nComplete name                            : Rychly Prachy (PRHA - 02.12.212) - Andrea.wmv\nFormat                                   : Windows Media\nFile size                                : 521 MiB\nDuration                                 : 23mn 2s\nOverall bit rate mode                    : Constant\nOverall bit rate                         : 3 161 Kbps\nMaximum Overall bit rate                 : 3 173 Kbps\nEncoded date                             : UTC 2012-12-02 01:41:37.953\nSfOriginalFPS                            : 300000\n\nVideo\nID                                       : 2\nFormat                                   : VC-1\nFormat profile                           : MP@ML\nCodec ID                                 : WMV3\nCodec ID/Info                            : Windows Media Video 9\nCodec ID/Hint                            : WMV3\nDescription of the codec                 : Windows Media Video 9 - Professional\nDuration                                 : 23mn 2s\nBit rate mode                            : Constant\nBit rate                                 : 3 050 Kbps\nWidth                                    : 640 pixels\nHeight                                   : 480 pixels\nDisplay aspect ratio                     : 4:3\nFrame rate                               : 30.000 fps\nBit depth                                : 8 bits\nScan type                                : Progressive\nCompression mode                         : Lossy\nBits/(Pixel*Frame)                       : 0.331\nStream size                              : 503 MiB (96%)\nLanguage                                 : Czech\n\nAudio\nID                                       : 1\nFormat                                   : WMA\nFormat version                           : Version 2\nCodec ID                                 : 161\nCodec ID/Info                            : Windows Media Audio\nDescription of the codec                 : Windows Media Audio 9.2 -  96 kbps, 44 kHz, stereo (A/V) 1-pass CBR\nDuration                                 : 23mn 2s\nBit rate mode                            : Constant\nBit rate                                 : 96.0 Kbps\nChannel(s)                               : 2 channels\nSampling rate                            : 44.1 KHz\nBit depth                                : 16 bits\nStream size                              : 15.8 MiB (3%)\nLanguage                                 : Czech","torrent":{"xt":"urn:btih:2eae8bae11dafc8a2a838d3562f188ae1423cacb","amp;dn":"Rychly+Prachy+%28PRHA+-+02.12.212%29+-+Andrea","amp;tr":["udp%3A%2F%2Ftracker.openbittorrent.com%3A80","udp%3A%2F%2Fopen.demonii.com%3A1337","udp%3A%2F%2Ftracker.coppersurfer.tk%3A6969","udp%3A%2F%2Fexodus.desync.com%3A6969"],"infoHash":"2eae8bae11dafc8a2a838d3562f188ae1423cacb","infoHashBuffer":{"type":"Buffer","data":[46,174,139,174,17,218,252,138,42,131,141,53,98,241,136,174,20,35,202,203]},"announce":[],"urlList":[]}}